<?xml version="1.0" standalone="no"?>
<!DOCTYPE svg PUBLIC "-//W3C//DTD SVG 20010904//EN"
 "http://www.w3.org/TR/2001/REC-SVG-20010904/DTD/svg10.dtd">
<svg version="1.0" xmlns="http://www.w3.org/2000/svg"
 width="1400.000000pt" height="1400.000000pt" viewBox="0 0 1400.000000 1400.000000"
 preserveAspectRatio="xMidYMid meet">
<metadata>
Created by potrace 1.14, written by Peter Selinger 2001-2017
</metadata>
<g transform="translate(0.000000,1400.000000) scale(0.100000,-0.100000)"
fill="#000000" stroke="none">
<path d="M4045 13949 c-381 -218 -719 -572 -1112 -1164 -242 -366 -358 -606
-568 -1180 -112 -306 -191 -615 -235 -920 -19 -129 -106 -625 -145 -820 -20
-99 -70 -362 -111 -585 -98 -538 -164 -797 -279 -1105 -108 -289 -209 -489
-439 -873 -197 -328 -205 -342 -253 -466 -27 -70 -34 -101 -30 -133 l5 -43
-94 -71 c-51 -39 -128 -107 -171 -152 -98 -105 -258 -306 -330 -416 -31 -47
-107 -163 -169 -257 l-114 -171 0 -2256 0 -2255 106 -183 c181 -315 243 -458
263 -604 7 -57 8 -181 1 -230 0 -5 -14 24 -29 65 -16 41 -96 214 -178 385 -83
171 -153 317 -156 325 -3 8 -6 -20 -6 -63 l-1 -77 106 -218 c117 -242 176
-376 193 -440 l12 -42 5625 2 5626 3 19 50 c34 87 87 277 103 365 35 197 29
345 -21 535 -27 105 -133 380 -154 399 -13 13 -15 22 27 -169 26 -119 28 -148
29 -340 0 -183 -3 -224 -23 -318 -24 -112 -90 -332 -97 -325 -3 2 11 65 30
140 55 218 68 335 62 538 -6 194 -33 348 -102 581 -49 165 -90 260 -266 612
-151 302 -206 402 -356 650 -45 76 -83 140 -83 142 0 2 -16 31 -36 65 -76 130
-178 425 -172 496 3 32 12 13 77 -147 78 -194 139 -324 200 -423 20 -34 42
-70 48 -81 7 -11 66 -109 133 -217 66 -109 120 -200 120 -204 0 -3 6 -12 14
-20 8 -8 66 -98 129 -202 286 -470 424 -783 489 -1105 20 -99 23 -141 23 -357
-1 -233 -2 -251 -29 -364 -23 -100 -51 -188 -91 -289 -5 -11 -2 -17 7 -17 25
0 92 201 125 375 20 110 29 427 14 540 -36 272 -115 513 -267 817 l-65 129 39
87 c22 48 45 103 53 122 7 19 27 62 45 95 18 33 69 146 112 250 110 262 150
346 172 367 11 10 65 75 122 146 262 326 729 864 869 1002 105 102 361 390
524 590 195 237 470 561 572 672 l43 47 0 1435 0 1435 -76 98 c-185 237 -333
398 -493 536 -250 215 -537 356 -724 357 -27 0 -47 4 -45 8 2 4 32 35 68 68
81 75 183 184 275 293 95 113 92 111 129 111 61 0 279 -41 396 -75 129 -37
286 -97 391 -151 39 -19 73 -33 75 -31 2 2 3 239 2 526 l-3 521 -54 -35 c-29
-20 -56 -33 -59 -31 -2 3 23 88 57 188 l61 183 0 223 c0 133 -4 222 -9 222
-16 0 -510 -125 -710 -180 -101 -27 -187 -47 -193 -44 -5 3 -17 -1 -26 -9 -9
-8 -165 -56 -347 -106 -181 -51 -422 -119 -535 -151 -327 -93 -847 -255 -862
-269 -4 -3 11 -57 33 -120 47 -136 154 -500 164 -555 9 -56 20 -34 34 69 38
281 138 588 229 703 23 30 146 66 916 273 59 16 112 32 117 35 18 11 222 64
227 59 3 -3 -3 -38 -12 -77 -17 -70 -46 -201 -66 -300 -23 -118 -46 -942 -27
-994 6 -17 -14 -41 -120 -146 -201 -197 -453 -411 -828 -703 -115 -90 -225
-179 -244 -198 l-33 -35 5 -164 c3 -90 13 -215 22 -278 22 -160 31 -645 16
-885 -29 -482 -99 -904 -203 -1225 -52 -162 -180 -511 -185 -506 -4 4 81 396
113 518 47 183 92 572 124 1073 13 207 13 783 0 995 -32 494 -88 890 -231
1608 -84 427 -125 612 -145 655 -12 26 -14 27 -10 7 3 -14 18 -106 35 -205 84
-505 128 -885 161 -1405 11 -162 28 -380 39 -485 11 -104 25 -262 32 -350 16
-209 16 -812 0 -980 -53 -559 -171 -987 -401 -1445 -60 -119 -240 -440 -240
-428 0 3 36 82 81 175 118 245 207 438 241 523 122 302 210 660 254 1030 19
156 31 880 17 970 l-9 55 -8 -90 c-13 -165 -47 -430 -56 -447 -6 -10 -10 -37
-10 -60 0 -24 -7 -83 -15 -133 -8 -49 -33 -218 -55 -375 -44 -304 -119 -627
-230 -994 -78 -260 -133 -401 -290 -746 -26 -58 -84 -185 -128 -283 -44 -98
-83 -181 -85 -184 -3 -3 3 21 13 54 50 160 85 254 158 433 104 255 178 485
256 805 72 293 130 559 124 576 -2 6 -23 -53 -46 -130 -67 -227 -187 -520
-389 -956 -136 -293 -230 -546 -274 -737 -27 -118 -35 -322 -20 -487 6 -68 10
-126 7 -128 -11 -11 -31 224 -31 377 0 157 3 186 27 280 53 207 131 414 297
778 287 632 387 923 490 1421 45 217 76 939 61 1410 -24 736 -76 1340 -160
1867 -32 198 -70 343 -245 939 -127 428 -304 931 -355 1005 -10 14 -39 66 -65
115 -106 200 -131 246 -213 380 -79 131 -142 226 -142 214 0 -3 38 -84 84
-180 185 -384 380 -873 519 -1304 233 -717 368 -1391 431 -2145 27 -312 38
-496 33 -516 -2 -10 -5 1 -6 26 -2 83 -61 695 -81 851 -132 995 -391 1878
-853 2915 -103 231 -237 500 -284 571 -48 72 -246 269 -351 349 -123 93 -313
180 -487 224 -33 8 -23 9 55 6 98 -4 224 -31 305 -66 65 -28 177 -101 268
-177 43 -36 81 -63 83 -60 15 15 -208 290 -343 424 -148 146 -256 208 -470
268 l-88 25 100 -5 c55 -3 115 -8 133 -12 17 -3 32 -1 32 4 0 18 -207 117
-337 162 -74 25 -134 51 -134 56 1 15 106 18 178 5 261 -45 519 -205 829 -514
304 -304 591 -701 874 -1210 164 -295 292 -576 448 -986 217 -568 258 -654
145 -305 -128 393 -263 723 -438 1070 -302 599 -654 1107 -1014 1465 -264 262
-482 411 -726 497 l-80 28 -2365 3 -2365 2 -90 -51z m5690 -1071 c44 -46 90
-104 103 -128 27 -51 37 -61 -90 88 -39 45 -74 82 -77 82 -4 0 -18 14 -30 31
-41 56 8 18 94 -73z m-570 -97 c99 -49 180 -106 199 -140 8 -14 6 -13 -15 2
-155 113 -255 160 -386 182 l-88 14 94 -3 c89 -3 98 -6 196 -55z m175 -833 c0
-6 -6 -5 -15 2 -8 7 -15 14 -15 16 0 2 7 1 15 -2 8 -4 15 -11 15 -16z m216
-238 c61 -94 133 -242 178 -364 40 -106 109 -362 103 -380 -2 -6 -7 5 -12 24
-31 144 -120 392 -192 535 -85 169 -131 239 -227 343 -31 33 -56 64 -56 68 1
19 162 -159 206 -226z m-1996 190 c137 -13 277 -35 380 -60 41 -10 140 -28
220 -39 80 -12 188 -30 240 -40 52 -11 199 -34 325 -51 214 -29 313 -47 325
-60 3 -3 22 -6 44 -8 57 -5 281 -76 367 -117 l76 -36 71 -207 c264 -764 445
-1443 551 -2066 l17 -103 -105 53 c-145 72 -315 136 -446 170 -100 26 -125 29
-280 28 -243 -1 -489 -45 -773 -140 -142 -48 -154 -57 -67 -50 355 28 709 8
1058 -59 274 -52 632 -170 648 -213 8 -22 53 -349 70 -509 l11 -112 -41 -133
c-49 -162 -98 -370 -146 -623 -130 -694 -251 -1108 -423 -1450 -200 -401 -449
-683 -963 -1095 -66 -52 -203 -136 -409 -250 -557 -306 -648 -359 -815 -470
-179 -120 -278 -159 -369 -147 -57 8 -237 68 -326 109 -173 80 -1076 598
-1332 764 -73 47 -134 87 -135 88 -2 2 36 94 83 207 182 435 219 549 275 853
70 380 106 682 124 1031 8 168 13 221 15 160 1 -49 6 -119 10 -155 6 -60 7
-55 8 50 1 63 6 174 12 245 5 72 16 260 25 420 9 159 17 290 18 290 6 4 327
-15 425 -26 62 -6 115 -9 118 -6 10 10 -90 27 -221 38 -71 6 -150 13 -174 16
l-43 5 48 33 c56 37 75 66 98 146 17 61 39 245 31 259 -6 10 15 7 34 -4 9 -6
12 -5 8 2 -5 7 7 8 35 5 144 -16 255 -67 396 -180 52 -41 96 -73 98 -70 7 7
-19 57 -79 150 -38 59 -47 81 -37 87 7 4 50 11 96 15 88 7 114 24 42 27 l-43
1 50 7 c47 6 48 6 20 13 -184 46 -253 61 -393 87 -90 17 -175 30 -188 30 -34
0 -30 10 26 55 l49 40 -78 9 c-44 5 -118 5 -167 0 l-89 -8 130 -11 130 -10
-115 -23 c-63 -12 -130 -22 -147 -22 -31 0 -33 2 -33 33 0 107 43 523 71 684
l11 62 61 -5 c383 -33 634 -80 871 -163 82 -29 98 -26 45 9 -24 16 -80 55
-123 85 -214 149 -471 244 -753 281 -33 4 -53 11 -53 20 0 24 90 369 126 484
129 410 357 848 606 1162 89 114 351 378 374 378 8 0 14 4 14 8 0 32 166 41
380 22z m-562 -69 c-24 -26 -83 -93 -132 -147 -198 -220 -371 -475 -509 -750
-331 -656 -464 -1415 -517 -2954 -14 -404 -19 -515 -31 -600 -5 -41 -21 -165
-35 -275 -45 -351 -112 -669 -195 -931 -43 -137 -179 -487 -186 -481 -2 3 23
87 56 188 171 530 231 785 291 1239 31 243 48 453 60 760 6 157 13 292 16 300
3 8 14 200 25 425 25 550 45 755 105 1120 82 492 179 811 354 1170 149 304
325 568 529 793 85 93 191 192 207 192 3 0 -14 -22 -38 -49z m5982 -2226 c0
-11 8 -34 19 -51 18 -30 18 -30 -5 -57 -13 -15 -24 -27 -26 -27 -2 0 -4 42 -5
93 -2 61 1 87 7 77 5 -8 10 -24 10 -35z m-2625 -946 c30 -145 31 -158 17 -185
-15 -28 -16 -23 -38 146 -12 96 -25 195 -28 220 -6 44 -6 44 5 10 6 -19 26
-105 44 -191z m-4317 -58 c5 -48 -11 -59 -42 -28 -14 14 -27 20 -28 15 -6 -18
-48 10 -48 32 0 22 20 27 75 20 37 -5 40 -8 43 -39z m75 -13 c6 -42 -1 -98
-11 -98 -3 0 -14 7 -24 17 -13 12 -18 30 -18 70 0 49 2 53 24 53 20 0 24 -6
29 -42z m5004 -330 c-2 -18 -4 -6 -4 27 0 33 2 48 4 33 2 -15 2 -42 0 -60z
m-5133 -22 c26 -21 11 -36 -35 -36 -39 0 -39 0 -39 40 l0 41 28 -16 c15 -8 35
-21 46 -29z m-4344 -192 c-134 -605 -262 -905 -487 -1144 -65 -69 -190 -180
-229 -203 -12 -7 68 199 106 273 13 25 68 119 123 210 239 394 366 639 463
891 27 70 50 123 52 119 2 -4 -11 -70 -28 -146z m9487 74 c-3 -8 -6 -5 -6 6
-1 11 2 17 5 13 3 -3 4 -12 1 -19z m793 -145 c335 -340 781 -905 1148 -1454
114 -171 246 -379 255 -401 4 -11 -24 -81 -74 -185 -45 -92 -162 -357 -261
-588 -198 -463 -339 -787 -346 -795 -5 -6 -16 8 -170 215 -141 191 -237 307
-454 548 -90 100 -208 234 -263 297 -54 63 -115 133 -136 155 l-37 40 49 170
c197 686 232 1165 138 1935 -11 91 -22 177 -25 193 -4 18 -1 27 7 27 8 0 83
-71 169 -157z m-1470 -804 c13 -187 23 -433 25 -639 3 -307 3 -317 -5 -126 -8
207 -18 376 -45 781 -8 116 -17 296 -19 400 l-5 190 14 -151 c8 -83 24 -288
35 -455z m-4974 -670 c-62 -276 -117 -407 -348 -824 -89 -159 -162 -292 -164
-294 -4 -5 -36 20 -99 77 l-58 53 28 72 c52 133 106 215 300 457 77 96 160
206 183 243 53 84 143 263 168 335 30 85 27 46 -10 -119z m281 109 c-3 -8 -6
-5 -6 6 -1 11 2 17 5 13 3 -3 4 -12 1 -19z m-32 -185 c-76 -403 -172 -710
-355 -1133 -85 -198 -75 -183 -108 -165 -59 31 -60 21 23 191 215 442 333 757
421 1117 22 87 40 151 42 143 2 -8 -9 -77 -23 -153z m7686 -460 c34 -60 82
-139 105 -178 99 -162 264 -495 308 -623 l13 -37 -137 -160 c-75 -88 -174
-205 -221 -261 -78 -94 -168 -198 -437 -511 -58 -68 -110 -123 -116 -123 -6 0
-33 42 -59 94 -27 51 -78 140 -114 197 -36 57 -74 118 -84 134 l-18 30 75 175
c41 96 102 240 135 320 180 431 467 1063 479 1055 4 -3 36 -53 71 -112z
m-8568 -823 c-27 -64 -74 -222 -91 -300 l-19 -95 -7 68 c-8 73 -2 224 16 374
l10 92 49 -62 c30 -39 46 -68 42 -77z m277 -312 c16 -18 30 -40 30 -48 0 -8
-22 -76 -49 -150 -27 -74 -60 -178 -72 -230 l-24 -95 -3 55 c-5 76 14 234 45
370 25 113 30 130 39 130 2 0 18 -15 34 -32z m467 26 c-3 -3 -12 -4 -19 -1 -8
3 -5 6 6 6 11 1 17 -2 13 -5z m33 -43 c0 -12 -2 -13 -9 -3 -4 8 -11 13 -15 12
-4 -1 -12 0 -19 3 -6 2 0 4 16 4 18 0 27 -5 27 -16z m44 1 c2 -4 -4 -8 -14 -8
-10 0 -16 4 -14 8 3 4 9 8 14 8 5 0 11 -4 14 -8z m6 -32 c8 -5 11 -12 8 -16
-4 -3 -14 1 -23 10 -18 17 -9 21 15 6z m47 -6 c-3 -3 -12 -4 -19 -1 -8 3 -5 6
6 6 11 1 17 -2 13 -5z m17 -16 c-5 -7 -2 -9 7 -6 9 3 26 -3 40 -14 14 -12 17
-18 7 -15 -9 3 -19 3 -22 -1 -11 -10 -36 -11 -42 -1 -3 5 0 9 7 9 10 0 10 3 0
13 -11 10 -14 9 -18 -1 -3 -6 -9 -9 -15 -6 -6 4 -1 12 13 20 30 17 32 17 23 2z
m-428 -118 c11 0 49 -14 83 -30 35 -17 79 -35 99 -39 21 -5 29 -9 20 -10 -27
-2 -21 -14 17 -39 19 -12 35 -27 35 -32 0 -6 9 -10 20 -10 13 0 20 -7 20 -20
0 -11 6 -20 13 -20 8 0 22 -9 32 -20 10 -11 14 -20 10 -20 -5 0 7 -15 26 -33
64 -61 110 -117 154 -185 6 -9 18 -25 28 -36 10 -11 20 -31 23 -43 4 -13 10
-23 15 -23 5 0 9 -4 9 -9 0 -12 70 -115 81 -119 5 -2 9 -10 9 -17 0 -15 37
-76 70 -114 11 -14 23 -35 26 -48 4 -13 10 -23 15 -23 5 0 16 -14 25 -32 9
-17 25 -41 36 -52 11 -12 22 -33 25 -47 3 -17 11 -26 21 -25 12 1 17 -6 15
-26 -1 -20 2 -25 13 -21 13 5 18 -7 15 -34 -1 -7 5 -13 14 -13 8 0 15 -6 15
-12 1 -21 38 -63 56 -63 10 0 20 -7 22 -15 5 -13 3 -13 -11 -1 -15 11 -17 11
-17 -2 0 -8 16 -25 35 -37 19 -12 35 -26 35 -31 0 -19 39 -47 58 -42 10 2 30
22 43 44 13 22 30 47 37 57 12 16 13 15 8 -3 -3 -11 -26 -141 -51 -290 -25
-148 -52 -301 -60 -340 -44 -212 -88 -479 -100 -601 -6 -69 14 -187 46 -261
22 -52 34 -54 19 -3 -5 18 -14 79 -20 135 -13 119 -9 157 55 510 24 132 64
359 89 505 25 146 51 296 58 335 l13 69 38 -1 c33 0 45 -7 80 -48 208 -237
378 -572 508 -1004 142 -470 217 -912 235 -1396 7 -188 -9 -501 -27 -554 -9
-26 -16 -30 -67 -36 -103 -11 -262 31 -564 151 -324 128 -673 325 -1129 636
-302 206 -373 260 -392 298 -21 42 -198 615 -232 750 -37 146 -56 283 -58 415
-2 134 -13 97 112 372 74 162 102 271 108 424 7 154 -10 246 -68 386 -23 54
-45 121 -50 148 -17 98 -22 278 -9 360 12 78 66 272 96 343 l14 35 43 -46 c24
-27 52 -47 63 -47z m556 42 c6 -6 3 -12 -7 -16 -9 -3 -13 -2 -10 4 4 6 -5 10
-20 10 -14 0 -24 4 -20 9 6 11 44 6 57 -7z m28 -17 c-7 -8 -17 -15 -23 -15 -6
0 -2 7 9 15 25 19 30 19 14 0z m119 -72 c3 -2 -1 -9 -9 -16 -10 -9 -11 -9 -6
1 5 8 0 12 -13 12 -11 0 -23 5 -26 10 -6 10 42 4 54 -7z m5320 -438 c138 -164
241 -300 338 -445 81 -121 279 -435 313 -497 l23 -42 -45 -98 c-26 -54 -83
-175 -127 -270 -45 -95 -115 -254 -157 -355 -42 -101 -107 -248 -144 -328 -38
-80 -76 -163 -85 -185 l-16 -40 -18 30 c-10 17 -77 126 -150 243 l-133 213 -2
212 c-2 167 -10 269 -36 477 -28 226 -33 308 -37 555 -4 256 -2 309 16 450 23
169 40 280 48 305 6 18 38 -17 212 -225z m-679 172 c0 -5 -4 -5 -10 -2 -5 3
-10 14 -10 23 0 15 2 15 10 2 5 -8 10 -19 10 -23z m-38 -9 c-8 -8 -9 -4 -5 13
4 13 8 18 11 10 2 -7 -1 -18 -6 -23z m42 -40 c3 -18 12 -81 20 -140 8 -58 35
-200 60 -315 82 -385 116 -634 116 -848 -1 -134 0 -135 -105 80 -126 259 -183
409 -221 580 -19 90 -22 334 -5 420 13 64 67 216 74 209 3 -3 8 4 12 15 3 12
11 19 16 16 5 -4 9 -1 9 4 0 26 20 8 24 -21z m-1924 -436 c-18 -170 -168 -718
-208 -758 -41 -42 -182 -125 -339 -200 -96 -46 -202 -103 -236 -127 -34 -23
-67 -46 -73 -50 -6 -3 -32 18 -58 48 -69 80 -62 90 64 99 115 8 188 30 264 81
60 39 176 157 223 226 90 131 288 537 340 699 15 48 29 87 31 85 1 -1 -3 -47
-8 -103z m-6975 -353 c55 -27 89 -47 75 -45 -14 3 -81 16 -150 30 -69 13 -156
28 -195 32 l-70 8 80 12 c136 20 150 17 260 -37z m8417 -70 c-1 -16 1 -20 6
-11 7 10 11 10 21 -2 7 -8 9 -21 5 -27 -4 -7 -3 -9 3 -6 16 10 29 -11 89 -144
45 -101 58 -145 74 -239 27 -168 42 -375 38 -540 l-3 -145 -58 127 c-118 257
-169 442 -201 728 -20 167 -21 276 -3 283 21 9 32 0 29 -24z m-3286 -25 c63
-30 104 -66 395 -347 178 -172 354 -340 390 -374 59 -55 64 -61 47 -72 -10 -6
-18 -18 -18 -26 0 -31 -337 -375 -368 -375 -4 0 -34 87 -66 193 -133 445 -276
742 -472 982 -24 30 -44 57 -44 61 0 11 66 -9 136 -42z m1769 -173 c-4 -22
-14 -46 -23 -53 -13 -11 -15 -11 -10 3 4 10 12 35 19 58 15 51 23 46 14 -8z
m-5476 -43 c6 -7 15 -13 19 -13 4 0 26 -11 48 -24 l42 -23 -20 -24 c-12 -13
-35 -26 -52 -30 -17 -3 -34 -11 -38 -17 -4 -6 -11 -8 -15 -3 -4 4 4 17 20 28
25 18 40 47 17 33 -5 -3 -10 -1 -10 4 0 6 10 10 21 8 33 -3 35 21 2 29 -15 4
-35 12 -43 19 -8 7 -22 15 -30 18 -11 4 -9 6 6 6 11 1 26 -5 33 -11z m-2 -44
c-3 -3 -12 -4 -19 -1 -8 3 -5 6 6 6 11 1 17 -2 13 -5z m8873 -43 c11 -29 9
-33 -66 -130 -43 -55 -80 -99 -82 -97 -1 2 20 52 48 112 29 60 56 119 61 132
11 28 22 23 39 -17z m-8875 9 c3 -5 1 -10 -4 -10 -6 0 -11 5 -11 10 0 6 2 10
4 10 3 0 8 -4 11 -10z m-34 -43 c-10 -9 -11 -8 -5 6 3 10 9 15 12 12 3 -3 0
-11 -7 -18z m-1811 -17 c204 -41 349 -99 720 -286 l225 -113 100 -100 c55 -56
95 -101 88 -101 -6 0 -89 15 -185 34 -420 83 -876 107 -1147 60 -107 -18 -310
-70 -375 -96 -27 -10 -50 -17 -52 -15 -4 4 52 173 86 257 67 169 184 293 337
356 71 29 76 29 203 4z m2441 -242 c29 -21 29 -24 23 -83 -3 -33 -17 -109 -30
-170 -36 -168 -45 -237 -45 -360 0 -179 21 -317 66 -448 14 -39 25 -72 25 -74
0 -7 -113 -2 -187 7 -98 14 -249 63 -303 99 -23 15 -67 59 -97 97 -30 38 -91
109 -136 157 -116 126 -115 120 -16 112 73 -6 92 -4 144 15 81 30 137 74 215
165 36 42 75 87 87 101 29 31 104 170 143 264 28 65 69 140 78 140 2 0 16 -10
33 -22z m-271 -255 c-136 -240 -260 -332 -453 -336 -66 -1 -139 24 -214 72
-32 21 -94 56 -138 79 -74 39 -281 199 -271 209 3 3 57 -16 120 -41 134 -54
279 -90 422 -106 90 -10 113 -9 199 9 105 21 222 72 310 134 28 20 52 36 53
36 2 1 -11 -25 -28 -56z m7215 -166 c2 -14 8 -34 14 -46 9 -17 8 -28 -8 -58
l-20 -38 -1 60 c-1 33 -3 75 -5 93 -2 23 0 31 7 24 6 -6 12 -22 13 -35z m90
-199 c66 -139 124 -294 131 -351 4 -32 -4 -67 -33 -151 -21 -59 -42 -109 -48
-110 -5 0 -43 64 -84 144 l-73 145 1 157 c1 132 5 164 21 200 11 24 20 51 20
61 0 9 3 17 6 17 3 0 29 -51 59 -112z m-640 -54 c123 -226 195 -373 206 -421
6 -28 8 -75 4 -112 l-7 -64 -75 184 c-125 308 -202 513 -203 538 0 11 15 -15
75 -125z m-1146 -108 c22 -142 26 -253 12 -353 -9 -57 -16 -71 -100 -180 -113
-149 -154 -195 -147 -168 18 67 60 286 72 375 16 126 17 160 4 160 -5 0 -10
-24 -10 -53 0 -88 -87 -516 -102 -501 -4 3 -4 -2 -2 -13 5 -16 -17 -48 -103
-149 -10 -11 -23 -29 -30 -40 -6 -10 -16 -18 -23 -16 -6 1 -8 -2 -5 -8 8 -13
-24 -52 -36 -44 -5 3 -7 -1 -4 -8 2 -7 -6 -25 -20 -40 -24 -28 -42 -38 -29
-16 4 7 3 8 -5 4 -6 -4 -9 -12 -5 -17 13 -22 -293 -371 -385 -437 -110 -80
-328 -164 -561 -215 -296 -66 -797 -134 -1110 -151 -338 -19 -625 -26 -755
-21 l-150 7 3 175 c2 117 -2 214 -13 296 -15 118 -49 299 -61 331 -5 12 3 19
25 27 50 18 192 88 243 120 l46 30 124 -79 c361 -230 678 -398 963 -509 240
-95 329 -121 446 -135 94 -11 101 -11 127 9 40 29 50 73 63 270 11 166 8 363
-8 601 l-6 92 24 0 c14 0 60 20 103 45 44 25 81 45 84 45 2 0 43 27 90 60 97
67 156 115 331 273 l120 108 93 -95 c133 -135 195 -153 292 -87 61 42 168 179
220 280 16 30 143 160 157 161 4 0 16 -60 28 -134z m-440 33 c30 -11 79 -22
108 -26 29 -3 53 -9 53 -13 0 -19 -121 -189 -158 -222 -50 -45 -93 -50 -138
-16 -43 32 -123 109 -146 141 l-20 27 40 48 c21 26 51 66 66 89 l26 43 58 -26
c31 -14 82 -35 111 -45z m-4188 -156 c12 -37 33 -92 46 -121 12 -29 23 -55 23
-57 0 -8 -54 -5 -67 3 -18 11 -43 154 -48 275 l-5 112 14 -72 c8 -39 24 -102
37 -140z m-572 134 c1 -35 54 -207 92 -300 28 -68 28 -68 6 -61 -12 3 -27 11
-33 18 -18 17 -51 114 -68 199 -17 81 -21 228 -6 192 5 -11 9 -33 9 -48z
m7166 -382 c12 -55 19 -142 22 -275 l4 -195 -26 74 c-14 41 -45 117 -69 169
l-44 94 23 50 c13 27 31 78 41 113 10 36 22 61 25 57 4 -4 15 -43 24 -87z
m-8671 -96 c386 -19 607 -79 826 -224 77 -51 220 -172 273 -232 41 -45 169
-153 182 -153 5 0 29 -14 55 -30 26 -17 85 -44 131 -61 74 -27 104 -32 244
-40 88 -5 272 -8 409 -7 233 2 249 1 262 -17 14 -18 14 -18 14 2 0 19 7 22 78
28 42 3 104 10 138 15 33 6 66 10 72 10 26 0 81 -329 89 -534 l6 -159 -149 6
c-187 9 -381 31 -498 58 -92 22 -374 117 -613 208 -73 27 -150 53 -170 57 -64
11 -97 40 -161 136 -153 235 -219 284 -377 282 -59 -1 -108 -13 -315 -82 -356
-117 -484 -146 -780 -179 -240 -26 -911 -26 -1120 1 -80 10 -172 21 -205 25
-58 6 -59 7 -66 41 -27 131 -76 661 -63 682 8 12 131 79 182 98 58 22 166 45
287 61 190 24 862 29 1269 8z m8396 -468 c52 -142 71 -242 76 -401 2 -80 1
-139 -2 -131 -5 11 -8 11 -15 0 -8 -12 -11 -11 -19 1 -8 12 -10 8 -11 -15 l-1
-30 -8 30 -8 30 -2 -35 c-3 -34 -3 -34 -10 10 -4 25 -8 35 -8 22 -3 -31 -22
-18 -23 16 l-1 27 -8 -30 c-4 -16 -8 -26 -9 -21 0 5 -15 77 -32 159 -29 142
-30 153 -15 191 16 44 36 181 36 256 1 41 2 43 15 26 8 -10 28 -57 45 -105z
m-34 -578 c-10 -10 -19 5 -10 18 6 11 8 11 12 0 2 -7 1 -15 -2 -18z m-5506
-69 c10 -43 22 -123 26 -176 6 -87 5 -98 -10 -104 -10 -4 -21 -3 -25 2 -8 9
-23 370 -15 362 2 -3 13 -40 24 -84z m5607 54 c-3 -7 -5 -2 -5 12 0 14 2 19 5
13 2 -7 2 -19 0 -25z"/>
<path d="M6325 8896 c-16 -12 -11 -14 46 -20 35 -4 104 -16 153 -27 49 -10 92
-17 94 -14 9 9 -73 38 -163 56 -108 22 -106 22 -130 5z"/>
<path d="M9072 8569 c-41 -5 -110 -17 -155 -28 -107 -26 -406 -116 -449 -136
l-33 -15 35 6 c19 4 87 22 150 40 368 109 528 136 658 114 41 -7 70 -16 65
-20 -15 -14 -138 -49 -268 -75 -278 -57 -425 -100 -608 -181 -82 -36 -196 -99
-232 -129 l-20 -16 20 5 c11 3 53 17 94 31 41 14 75 24 77 23 1 -2 -3 -27 -8
-57 -15 -75 1 -157 47 -229 l36 -57 -28 -5 c-54 -11 53 -29 262 -45 221 -18
504 -54 664 -85 92 -18 124 -20 110 -5 -8 8 -253 53 -357 66 -103 12 -104 13
-75 28 52 28 144 114 171 161 25 42 27 53 27 171 l0 126 70 -19 c128 -35 278
-102 398 -176 57 -35 58 -37 52 -71 -12 -68 -61 -156 -125 -225 -69 -73 -69
-79 -5 -104 l30 -12 -27 24 -28 25 23 7 c37 11 120 70 193 137 70 63 70 52 0
-37 -30 -39 -30 -39 -4 -22 25 16 121 135 162 199 10 16 39 38 64 50 26 11 41
22 34 25 -10 3 -8 8 5 18 16 12 11 13 -44 14 -35 0 -63 4 -63 10 0 6 11 10 25
10 38 0 30 15 -15 29 -56 17 -233 107 -253 128 -15 18 -14 20 28 42 54 28 65
22 101 -54 l24 -50 -3 38 c-2 20 -1 37 3 37 3 0 21 -10 40 -21 l35 -21 -25 27
c-14 15 -46 39 -72 54 -27 15 -45 31 -41 34 3 4 -2 7 -13 7 -17 0 -16 3 6 21
l25 20 -57 -6 c-52 -6 -62 -3 -140 36 -133 67 -241 110 -250 101 -5 -5 23 -21
64 -37 143 -56 234 -103 215 -111 -21 -8 -188 1 -325 18 l-93 11 48 44 c26 24
38 39 26 33 -30 -14 -29 -1 3 29 14 13 21 28 17 32 -10 10 -135 29 -183 28
-19 -1 -68 -5 -108 -10z m-2 -306 c4 -4 5 -27 2 -50 l-4 -42 -48 24 c-47 24
-68 53 -54 76 7 12 92 5 104 -8z m-126 -1 c10 -17 -10 -29 -41 -25 -52 8 -39
24 24 32 6 0 14 -3 17 -7z m171 -65 c2 -41 0 -57 -8 -54 -7 2 -13 29 -15 61
-2 40 1 57 8 54 6 -2 13 -29 15 -61z m68 25 c2 -4 7 -20 11 -36 6 -26 5 -28
-16 -23 -21 5 -21 5 -5 -7 18 -14 24 -61 8 -70 -21 -13 -39 31 -39 97 -1 63 0
67 18 57 10 -6 21 -13 23 -18z m-613 -12 c-8 -5 -22 -9 -30 -9 -10 0 -8 3 5 9
27 12 43 12 25 0z m-10 -256 c0 -4 -5 -24 -11 -45 -10 -33 -14 -37 -30 -28
-25 13 -24 28 3 56 21 22 38 30 38 17z m165 -64 c41 -21 72 -19 112 8 20 12
26 12 57 -7 37 -23 100 -90 93 -98 -7 -6 -394 29 -408 37 -17 11 5 45 43 63
43 21 56 21 103 -3z"/>
<path d="M9231 7684 c0 -11 3 -14 6 -6 3 7 2 16 -1 19 -3 4 -6 -2 -5 -13z"/>
<path d="M9320 7672 c0 -5 7 -15 15 -22 8 -7 15 -8 15 -2 0 5 -7 15 -15 22 -8
7 -15 8 -15 2z"/>
<path d="M9400 7672 c0 -12 19 -26 26 -19 2 2 -2 10 -11 17 -9 8 -15 8 -15 2z"/>
<path d="M9520 7663 c0 -5 18 -18 41 -31 39 -23 40 -23 30 -3 -16 30 -71 56
-71 34z"/>
<path d="M9471 7657 c2 -1 12 -9 22 -16 15 -12 17 -12 11 3 -3 9 -13 16 -22
16 -8 0 -13 -1 -11 -3z"/>
<path d="M7805 7573 c37 -221 66 -330 122 -460 l36 -83 -18 -47 c-10 -25 -36
-73 -59 -107 -61 -89 -63 -95 -19 -53 22 21 50 59 63 85 13 26 32 58 42 71 25
33 23 49 -21 154 -48 113 -67 176 -100 336 -15 70 -31 126 -38 129 -9 2 -11
-5 -8 -25z"/>
<path d="M6255 6130 c-37 -60 272 -233 599 -335 98 -31 183 -54 188 -53 5 2
-48 23 -119 47 -329 111 -603 251 -634 324 -12 28 -23 34 -34 17z"/>
<path d="M8032 5857 c-59 -52 -133 -88 -262 -126 l-35 -11 40 6 c68 10 258 75
292 100 35 26 51 60 35 76 -6 6 -31 -9 -70 -45z"/>
<path d="M7078 5733 c7 -3 16 -2 19 1 4 3 -2 6 -13 5 -11 0 -14 -3 -6 -6z"/>
<path d="M7648 5713 c18 -2 45 -2 60 0 15 2 0 4 -33 4 -33 0 -45 -2 -27 -4z"/>
<path d="M5753 4735 c0 -8 4 -12 9 -9 5 3 6 10 3 15 -9 13 -12 11 -12 -6z"/>
<path d="M10602 4250 c-18 -29 -15 -33 8 -10 21 21 25 30 12 30 -4 0 -13 -9
-20 -20z"/>
<path d="M3230 3089 c0 -5 5 -7 10 -4 6 3 10 8 10 11 0 2 -4 4 -10 4 -5 0 -10
-5 -10 -11z"/>
<path d="M11254 10365 c15 -51 89 -371 131 -565 25 -118 71 -326 101 -463 30
-136 54 -260 54 -277 0 -16 13 -89 30 -162 16 -73 41 -198 55 -278 30 -169 43
-210 44 -135 1 70 -14 163 -54 349 -64 292 -95 480 -95 577 0 80 -8 119 -65
332 -77 289 -178 614 -195 630 -10 9 -11 8 -6 -8z"/>
</g>
</svg>
